# xmcd
#
# Track frame offsets:
#	150
#	21126
#	39552
#	56946
#	71943
#	90399
#	124390
#	150188
#	179419
#	210419
#	230101
#	254028
#
# Disc length: 3745 seconds
#
# Revision: 2
# Processed by: cddbd v1.5.2PL0 Copyright (c) Steve Scherf et al.
# Submitted via: EZCDAudioConverter 8.0.2.1
#
DISCID=ac0e9f0c
DTITLE=蔡依林 - 最爱 Live Concert音乐精选 DISC01
DYEAR=2006
DGENRE=World Pop
TTITLE0=野蛮游戏(Remix)
TTITLE1=许愿池的希腊少女(Remix)
TTITLE2=睁一只眼闭一只眼(Remix)
TTITLE3=乐园(Remix)
TTITLE4=Prove It(Remix)
TTITLE5=看我72变＋爱情36计＋招牌动作(经典舞曲Live版)
TTITLE6=始作俑者＋反覆记号(Jolin创作 重新改编)
TTITLE7=马甲上的绳索＋做一天的你＋好想你(抒情经典吉他伴奏版)
TTITLE8=说爱你＋就是爱＋布拉格广场(双J经典Live版)
TTITLE9=我依然是你的情人＋剪爱(翻唱经典)
TTITLE10=天空＋倒带(经典摇滚 钢琴伴奏版)
TTITLE11=假面的告白＋柠檬草的味道(经典抒情Live版)
EXTD=
EXTT0=
EXTT1=
EXTT2=
EXTT3=
EXTT4=
EXTT5=
EXTT6=
EXTT7=
EXTT8=
EXTT9=
EXTT10=
EXTT11=
PLAYORDER=
